<?xml version="1.0" standalone="no"?>
<!DOCTYPE svg PUBLIC "-//W3C//DTD SVG 20010904//EN"
 "http://www.w3.org/TR/2001/REC-SVG-20010904/DTD/svg10.dtd">
<svg version="1.0" xmlns="http://www.w3.org/2000/svg"
 width="192.000000pt" height="300.000000pt" viewBox="0 0 192.000000 300.000000"
 preserveAspectRatio="xMidYMid meet">

<g transform="translate(0.000000,300.000000) scale(0.100000,-0.100000)"
fill="#000000" stroke="none">
<path d="M870 2904 c-86 -22 -209 -88 -272 -144 -77 -69 -151 -182 -185 -283
-23 -70 -27 -99 -27 -202 -1 -101 3 -131 23 -190 39 -115 81 -185 161 -266
131 -132 275 -193 460 -194 186 0 323 57 460 195 131 131 189 269 190 451 0
112 -16 184 -65 284 -80 165 -212 281 -382 335 -81 26 -108 30 -201 29 -59 0
-132 -7 -162 -15z m367 -100 l73 -28 -63 -13 c-34 -7 -109 -36 -166 -64 -87
-44 -117 -66 -187 -136 l-82 -83 -64 34 c-35 19 -91 44 -125 56 l-63 23 31 39
c41 51 130 123 191 154 80 41 152 54 273 50 93 -2 121 -7 182 -32z m215 -151
c33 -35 108 -147 108 -163 0 -4 -37 -7 -82 -7 -141 0 -256 -41 -382 -135 l-67
-50 -68 63 c-38 35 -69 69 -70 74 0 6 18 29 42 51 147 141 273 202 417 203 63
1 67 0 102 -36z m-859 -157 c274 -103 465 -299 547 -561 28 -91 50 -204 40
-210 -15 -9 -154 -25 -172 -20 -10 4 -20 16 -22 28 -21 111 -33 148 -67 215
-71 141 -220 275 -383 346 l-71 31 7 45 c11 64 39 150 49 150 5 0 37 -11 72
-24z m986 -105 c16 -10 26 -120 17 -184 l-7 -44 -92 -6 c-100 -5 -163 -26
-254 -84 l-53 -33 -35 68 c-19 37 -42 79 -52 94 -17 27 -17 28 9 55 39 41 132
94 207 120 69 23 231 32 260 14z m-933 -257 c74 -52 153 -136 192 -207 32 -55
62 -145 62 -184 0 -29 -11 -27 -119 23 -55 26 -92 52 -145 107 -98 98 -144
188 -170 335 l-6 32 63 -31 c34 -17 89 -51 123 -75z m910 -80 c-19 -76 -124
-197 -228 -264 l-62 -40 -17 83 c-9 46 -20 93 -23 105 -8 23 15 42 104 87 75
39 126 54 184 54 47 1 48 0 42 -25z"/>
<path d="M1216 1578 c-3 -24 -8 -74 -11 -113 -3 -38 -14 -108 -25 -154 -14
-58 -17 -88 -10 -95 5 -5 10 -20 10 -33 0 -31 52 -132 80 -158 26 -24 80 -134
79 -161 0 -14 -2 -15 -6 -4 -5 13 -161 170 -169 170 -2 0 1 -12 6 -27 9 -26 9
-27 -5 -9 -18 23 -20 46 -4 46 7 0 9 14 4 43 -10 63 -15 78 -27 71 -14 -9 -1
-140 18 -176 8 -15 22 -28 30 -28 23 0 74 -39 74 -56 0 -20 -5 -18 -53 15 -23
15 -64 40 -92 54 -27 13 -59 34 -69 46 -11 12 -25 21 -31 21 -19 0 -142 -134
-165 -181 -12 -22 -25 -60 -30 -82 l-8 -42 -1 55 c-1 42 5 65 25 100 35 59 84
157 84 166 0 4 -10 -2 -23 -14 -27 -25 -103 -59 -214 -96 -101 -34 -125 -52
-148 -113 -10 -26 -26 -55 -35 -65 -39 -37 -62 -89 -60 -131 4 -77 5 -87 11
-87 8 0 49 40 49 47 0 4 -5 2 -12 -5 -19 -19 -25 -14 -20 18 5 34 13 37 46 14
23 -14 25 -14 40 8 22 32 20 55 -8 73 l-24 16 17 57 c25 82 38 102 79 119 46
20 214 63 210 55 -36 -68 -60 -130 -65 -171 -6 -49 -6 -50 -60 -72 -49 -20
-83 -49 -83 -73 0 -5 8 -1 19 8 10 9 42 26 70 36 l51 20 0 -33 c0 -37 -19 -59
-62 -76 -15 -6 -45 -21 -67 -35 -34 -22 -42 -35 -65 -104 -23 -68 -31 -81 -60
-95 -19 -8 -49 -29 -67 -45 -19 -16 -50 -34 -70 -41 -40 -13 -83 -51 -58 -51
8 0 23 7 33 15 34 25 50 19 27 -10 -11 -14 -23 -40 -26 -58 -4 -18 -16 -42
-28 -54 -11 -13 -16 -23 -10 -23 17 0 50 43 62 81 7 20 21 45 33 55 11 11 29
32 39 48 l18 30 21 -45 21 -44 -4 35 c-2 19 -6 42 -8 50 -2 8 3 14 11 15 32 1
60 26 60 53 l1 27 15 -28 c8 -15 14 -40 12 -55 -3 -23 -7 -26 -40 -25 -33 0
-38 -3 -37 -21 0 -11 4 -30 9 -41 7 -18 9 -16 16 13 6 30 10 33 35 30 26 -4
29 -1 35 30 4 21 2 43 -5 53 -17 28 -13 47 14 75 29 29 45 24 46 -14 0 -27 0
-27 11 -4 8 16 8 29 -1 48 -14 32 -10 39 41 65 50 26 44 35 -10 14 -36 -15
-88 -67 -119 -119 -20 -34 -15 -9 7 33 22 44 65 83 124 113 22 11 48 26 56 34
14 11 15 8 12 -27 -2 -22 1 -46 8 -54 8 -10 10 -29 6 -56 -7 -45 8 -46 25 -1
7 19 5 38 -7 73 -15 40 -15 50 -4 64 12 14 14 14 30 0 10 -9 46 -25 80 -35 72
-22 90 -35 90 -65 0 -32 -27 -51 -94 -69 -33 -8 -72 -24 -88 -36 -35 -26 -46
-25 -74 6 -13 14 -29 22 -35 19 -7 -5 -4 -13 7 -26 16 -17 15 -19 -10 -30 -39
-18 -31 -28 14 -16 22 6 42 9 45 6 9 -10 -45 -98 -65 -104 -10 -3 -24 -13 -31
-23 -11 -14 -11 -15 1 -5 8 7 22 13 32 13 14 0 18 -8 18 -42 0 -33 3 -39 12
-30 7 7 11 29 10 50 -2 28 5 49 28 84 17 25 38 52 47 60 11 8 9 2 -5 -17 -18
-25 -21 -38 -15 -83 8 -72 28 -62 28 14 0 78 10 93 42 62 13 -12 34 -38 45
-56 14 -22 23 -30 28 -22 6 9 13 9 28 1 11 -6 24 -11 28 -11 13 0 -20 31 -48
46 -17 9 -28 23 -28 35 0 18 4 20 28 14 15 -3 34 -13 43 -21 8 -8 22 -14 29
-14 18 0 -37 57 -72 76 -37 19 -35 27 8 50 21 10 46 31 57 46 20 26 20 27 0
65 -21 40 -58 64 -130 83 -27 7 -44 17 -48 31 -10 31 -1 32 32 5 16 -13 56
-32 88 -41 76 -22 85 -30 85 -71 0 -24 5 -34 15 -34 20 0 20 59 -1 88 -8 12
-13 22 -9 22 3 0 -1 13 -10 30 -9 16 -12 30 -7 30 13 0 39 -32 51 -63 9 -24
31 -38 31 -19 0 29 -23 79 -42 91 -13 8 -34 21 -48 30 -23 15 -24 15 -17 -2 4
-11 3 -16 -3 -12 -18 11 -10 31 25 65 30 29 35 39 30 65 -12 60 -14 62 -52 63
-59 2 -63 17 -15 64 31 32 44 40 53 31 19 -19 3 -40 -36 -47 -47 -9 -41 -32 7
-28 32 3 37 0 52 -33 10 -20 20 -52 23 -71 5 -29 3 -33 -11 -28 -25 9 -19 -14
8 -31 13 -9 26 -28 29 -43 3 -15 12 -36 20 -46 14 -19 15 -19 48 9 l34 28 10
-69 c6 -38 13 -67 17 -64 3 3 15 -3 26 -13 14 -13 22 -15 27 -7 9 14 45 -16
45 -37 0 -8 5 -11 11 -8 6 4 8 13 5 21 -4 12 -2 12 14 4 25 -13 25 -6 0 28
-22 31 -30 65 -15 71 12 5 20 -11 35 -69 9 -33 14 -40 19 -27 6 15 9 16 26 4
17 -13 18 -19 6 -71 -12 -54 -11 -58 13 -101 25 -42 46 -65 46 -48 0 4 -12 26
-25 48 -24 39 -32 80 -17 88 4 2 22 -2 40 -9 23 -10 37 -26 48 -54 14 -35 39
-60 59 -60 4 0 -3 12 -14 26 -12 15 -21 34 -21 44 0 20 -24 45 -66 70 -27 16
-32 25 -35 64 -6 71 24 71 94 1 19 -19 45 -35 57 -35 20 0 19 3 -11 23 -19 12
-35 30 -37 40 -3 14 4 17 35 17 28 0 34 3 23 10 -8 5 -32 10 -52 10 -33 0 -42
6 -72 47 -31 42 -34 53 -29 87 4 28 3 37 -5 32 -17 -10 -15 -72 4 -107 20 -41
13 -46 -29 -20 -31 19 -35 27 -41 80 -5 48 -12 62 -31 75 -19 13 -25 25 -25
53 0 35 1 36 15 17 17 -22 19 -15 6 19 -6 14 -19 28 -30 32 -31 9 -25 25 8 25
31 0 32 -2 106 -120 19 -30 48 -75 65 -100 l30 -44 -5 79 -6 80 25 -52 c24
-50 24 -54 9 -92 -15 -39 -13 -71 5 -71 5 0 7 11 4 25 -6 34 10 31 32 -6 10
-17 20 -28 23 -25 3 3 -4 21 -15 40 -16 27 -19 42 -12 71 5 20 11 39 13 42 11
10 28 -40 22 -64 -3 -13 -3 -34 1 -46 5 -17 9 -14 21 22 15 43 14 44 -21 95
-20 29 -36 57 -36 63 0 6 -7 16 -15 23 -9 7 -26 27 -37 43 l-22 30 30 -7 29
-7 -32 26 c-38 31 -43 67 -13 105 19 25 19 25 -7 52 -14 14 -31 24 -37 22 -14
-5 -63 43 -53 52 9 9 93 -43 112 -68 11 -16 13 -35 9 -68 -5 -40 0 -57 41
-142 25 -53 53 -102 61 -108 18 -16 18 -1 -1 24 -29 39 -15 52 16 16 l30 -35
-6 48 c-6 46 -6 48 14 38 29 -16 36 -13 19 7 -9 9 -19 27 -22 40 -10 32 14 28
49 -8 35 -36 52 -39 29 -5 -15 23 -15 25 0 25 33 0 15 20 -28 31 -35 9 -46 16
-51 37 -7 30 -23 52 -36 52 -5 0 -6 -7 -2 -16 5 -14 3 -15 -16 -5 -12 7 -32
11 -44 9 -19 -3 -22 2 -25 35 -3 31 1 39 19 46 20 7 13 13 -63 54 -47 26 -95
47 -108 47 -13 0 -47 -19 -76 -41 -56 -43 -119 -70 -141 -62 -23 9 -26 75 -14
258 14 215 14 245 2 245 -6 0 -12 -19 -15 -42z m268 -503 c20 -9 41 -13 46
-10 20 12 9 -9 -35 -71 -25 -34 -45 -70 -45 -78 0 -23 -14 -19 -25 7 -8 17
-20 23 -52 25 -51 4 -73 30 -45 54 23 21 113 88 117 88 1 0 19 -7 39 -15z
m-175 -22 c-21 -23 -22 -25 -4 -19 19 7 19 6 3 -10 -17 -17 -18 -17 -38 1 -25
23 -22 37 11 46 48 14 53 10 28 -18z m381 -83 c18 -18 28 -50 15 -50 -17 0
-66 33 -75 50 -9 18 -8 20 15 20 14 0 34 -9 45 -20z m-582 -52 c7 -7 12 -23
12 -37 l0 -24 -25 23 c-27 25 -33 50 -12 50 7 0 18 -5 25 -12z m456 -45 c22
-36 36 -69 35 -88 -1 -27 -2 -26 -12 12 -7 24 -28 59 -49 81 -41 41 -46 52
-24 52 7 0 29 -26 50 -57z m126 17 c0 -4 3 -17 7 -27 6 -17 6 -17 -14 0 -12
10 -23 27 -26 37 -4 17 -2 18 14 9 10 -5 19 -14 19 -19z m-177 -15 c26 -23 28
-30 25 -87 l-3 -62 -32 62 c-31 58 -43 112 -25 112 4 0 20 -12 35 -25z m-294
-40 c17 -20 31 -44 31 -54 0 -20 -78 -131 -91 -131 -5 0 -11 12 -15 28 -3 15
-8 33 -10 40 -2 8 3 20 11 28 17 18 20 34 5 34 -5 0 -10 -7 -10 -15 0 -8 -4
-15 -10 -15 -11 0 -14 59 -3 85 5 15 8 15 25 -6 l20 -24 -6 27 c-3 14 -9 34
-12 43 -11 26 26 4 65 -40z m103 5 c5 0 8 -18 8 -40 0 -21 6 -44 13 -50 6 -5
23 -18 36 -28 36 -28 23 -54 -21 -42 -50 14 -67 42 -67 106 1 30 -4 61 -11 69
-6 8 -8 19 -4 26 4 8 12 3 23 -15 8 -14 19 -26 23 -26z m-350 14 c16 -6 28
-33 28 -68 0 -14 -3 -17 -11 -9 -6 6 -11 17 -12 24 -3 20 -17 39 -28 39 -18 0
-9 -39 17 -69 20 -24 23 -34 15 -50 -6 -11 -11 -29 -11 -40 0 -16 -6 -21 -26
-21 -40 0 -62 17 -75 59 -9 32 -8 43 6 72 23 45 56 81 69 74 6 -3 18 -8 28
-11z m68 -54 c0 -13 -1 -13 -10 0 -5 8 -10 22 -10 30 0 13 1 13 10 0 5 -8 10
-22 10 -30z m360 -56 c0 -2 -9 0 -20 6 -11 6 -20 13 -20 16 0 2 9 0 20 -6 11
-6 20 -13 20 -16z m-93 -85 c10 -13 11 -23 3 -44 -6 -16 -8 -35 -5 -44 4 -10
-3 -7 -18 7 -27 25 -41 86 -31 129 l7 26 15 -29 c8 -16 21 -36 29 -45z m-757
-2 c0 -7 -5 -19 -10 -27 -7 -12 -12 -12 -22 -2 -6 6 -23 12 -36 12 -19 0 -23
4 -17 18 4 9 9 24 12 34 4 15 8 14 39 -4 19 -11 34 -25 34 -31z m460 -27 c13
-8 13 -10 -2 -10 -9 0 -20 5 -23 10 -8 13 5 13 25 0z m445 -67 c9 -13 14 -27
11 -31 -8 -8 -56 39 -56 54 0 20 26 6 45 -23z m-106 -3 c11 -24 11 -24 -3 -6
-9 11 -16 24 -16 30 0 12 5 7 19 -24z m-437 -200 c-5 -33 -19 -35 -36 -7 -8
13 -7 20 4 27 27 17 37 11 32 -20z"/>
<path d="M1193 760 c-24 -41 -29 -60 -14 -60 12 0 39 42 47 74 9 38 -8 31 -33
-14z"/>
<path d="M1137 1499 c-10 -130 -8 -212 4 -179 6 17 7 3 3 -40 -3 -36 -3 -62 0
-59 13 13 57 294 51 325 -8 46 -25 34 -26 -19 l-2 -42 -6 47 c-11 75 -17 65
-24 -33z"/>
<path d="M958 1520 c-4 -25 -12 -99 -18 -165 -12 -144 -30 -205 -73 -241 -18
-15 -82 -51 -144 -80 -184 -86 -191 -93 -271 -252 -75 -146 -81 -154 -155
-196 -26 -15 -54 -38 -63 -51 -8 -13 -25 -25 -37 -27 -12 -2 -23 -11 -25 -22
-6 -27 8 -106 18 -106 11 0 40 75 40 104 0 28 41 66 109 100 61 31 68 41 136
174 85 168 97 179 286 261 152 67 179 105 199 276 13 113 11 306 -2 225z
m-756 -1066 c-7 -12 -11 -13 -17 -4 -4 7 -2 16 6 21 18 11 23 4 11 -17z"/>
<path d="M1045 1518 c-10 -29 -21 -128 -14 -128 9 0 39 86 39 111 0 22 -19 35
-25 17z"/>
<path d="M1097 1500 c-11 -61 -28 -252 -23 -257 7 -7 25 63 38 148 8 54 9 86
1 110 l-10 34 -6 -35z"/>
<path d="M1011 1296 c-6 -27 -10 -51 -7 -53 7 -7 28 76 23 90 -2 6 -9 -10 -16
-37z"/>
<path d="M1105 1196 c-9 -20 -18 -50 -21 -65 -7 -31 21 -105 35 -96 7 4 7 14
0 29 -8 16 -8 43 0 92 6 37 8 70 6 73 -3 2 -12 -13 -20 -33z"/>
<path d="M1014 1166 c-7 -41 5 -71 17 -40 11 28 11 74 -1 74 -5 0 -12 -15 -16
-34z"/>
<path d="M1681 1094 c-64 -29 -60 -49 5 -29 36 10 51 11 65 2 23 -15 34 -4 20
21 -16 31 -35 32 -90 6z"/>
<path d="M1196 578 c-11 -42 -6 -71 14 -93 21 -22 47 -100 57 -172 3 -24 9
-40 14 -37 14 8 11 67 -6 114 -8 23 -12 46 -9 52 9 14 31 -9 39 -40 7 -29 54
-96 62 -89 2 3 -5 23 -17 46 -22 44 -21 47 13 30 12 -6 -7 15 -42 47 -36 33
-74 64 -85 69 -15 8 -21 21 -22 48 -1 44 -9 56 -18 25z"/>
<path d="M380 560 c-8 -14 -17 -19 -30 -15 -14 5 -22 -3 -35 -40 -10 -25 -20
-45 -23 -45 -3 0 -11 8 -18 18 -16 21 -19 0 -4 -29 18 -33 37 -22 50 31 14 57
30 57 30 -1 0 -46 16 -52 25 -9 5 21 13 30 26 30 25 0 24 17 -2 25 -19 6 -19
8 -5 24 18 20 20 31 6 31 -5 0 -14 -9 -20 -20z"/>
<path d="M1095 511 c5 -31 3 -48 -10 -67 -16 -25 -16 -25 3 -15 38 21 46 95
12 116 -9 6 -10 -3 -5 -34z"/>
<path d="M1145 508 c4 -18 11 -51 15 -73 l7 -40 11 28 c10 24 9 36 -7 73 -23
52 -37 58 -26 12z"/>
<path d="M464 505 c-16 -12 -16 -14 -3 -15 9 0 22 7 29 15 16 19 0 19 -26 0z"/>
<path d="M515 471 c-12 -38 -32 -45 -64 -22 -16 12 -34 21 -40 21 -20 0 -11
-17 17 -30 l27 -13 -27 -11 c-38 -16 -68 -46 -68 -68 0 -26 38 -15 63 18 24
31 51 33 42 3 -10 -32 10 -15 25 21 7 17 20 30 30 30 10 0 23 7 30 15 15 18
-1 20 -18 3 -10 -10 -11 -5 -6 20 7 35 -1 44 -11 13z m-110 -101 c-10 -11 -21
-17 -24 -14 -3 3 3 12 13 20 28 20 32 17 11 -6z"/>
<path d="M100 420 c-13 -8 -13 -10 2 -10 9 0 20 5 23 10 8 13 -5 13 -25 0z"/>
<path d="M990 367 c0 -17 20 -37 37 -37 21 0 15 16 -12 34 -19 13 -25 13 -25
3z"/>
<path d="M855 250 c3 -5 13 -10 21 -10 8 0 14 5 14 10 0 6 -9 10 -21 10 -11 0
-17 -4 -14 -10z"/>
</g>
</svg>
